<?xml version="1.0" standalone="no"?>
<!DOCTYPE svg PUBLIC "-//W3C//DTD SVG 20010904//EN"
 "http://www.w3.org/TR/2001/REC-SVG-20010904/DTD/svg10.dtd">
<svg version="1.0" xmlns="http://www.w3.org/2000/svg"
 width="1024.000000pt" height="1024.000000pt" viewBox="0 0 1024.000000 1024.000000"
 preserveAspectRatio="xMidYMid meet">
<metadata>
Created by potrace 1.11, written by Peter Selinger 2001-2013
</metadata>
<g transform="translate(0.000000,1024.000000) scale(0.100000,-0.100000)"
fill="#000000" stroke="none">
<path d="M4188 9186 c-27 -7 -48 -11 -48 -9 0 2 -10 -3 -22 -11 -13 -8 -27
-15 -31 -15 -41 0 -247 -165 -247 -198 0 -6 -4 -13 -8 -15 -5 -1 -23 -33 -40
-70 -28 -60 -43 -121 -46 -188 -1 -30 25 -130 34 -130 4 0 7 -6 7 -13 0 -20
134 -287 145 -287 5 0 6 -4 3 -10 -3 -5 -1 -10 4 -10 6 0 11 -5 11 -11 0 -6
14 -31 32 -57 126 -185 221 -214 329 -103 27 28 47 51 44 51 -4 0 2 12 13 28
11 15 23 42 27 61 7 32 6 34 -9 19 -9 -9 -16 -19 -16 -23 0 -6 -70 -75 -103
-102 -28 -22 -82 -31 -113 -18 -27 11 -84 82 -84 104 0 5 -3 11 -7 13 -14 6
-137 264 -149 313 -3 14 -10 28 -15 31 -5 3 -7 10 -3 15 3 5 1 15 -4 22 -9 11
-10 95 -1 127 11 37 32 80 41 80 5 0 6 5 3 10 -3 6 -1 10 4 10 6 0 11 6 11 14
0 33 182 177 213 168 4 -1 7 2 7 7 0 8 34 17 85 24 11 1 23 7 27 12 5 7 8 7 8
0 0 -5 26 -10 58 -11 40 -1 74 -9 113 -28 97 -45 150 -110 179 -216 7 -25 15
-52 18 -60 3 -8 6 -22 7 -30 0 -8 4 -28 8 -45 7 -33 18 -89 22 -120 2 -11 4
-21 5 -22 2 -2 3 -6 4 -10 18 -86 32 -133 38 -133 4 0 8 -7 8 -16 0 -9 10 -30
22 -47 26 -38 88 -109 88 -102 0 3 19 -5 43 -18 23 -14 48 -23 55 -20 6 3 12
1 12 -4 0 -15 140 -19 460 -12 160 3 245 -4 267 -23 7 -6 13 -7 13 -4 0 4 15
-3 33 -15 l32 -23 -26 34 c-22 29 -118 90 -138 88 -4 0 -8 1 -11 2 -30 11
-129 23 -200 24 -36 1 -68 5 -72 11 -5 6 -8 5 -8 -4 0 -10 -4 -11 -12 -3 -16
13 -28 13 -50 1 -13 -7 -18 -6 -18 3 0 9 -3 9 -12 0 -7 -7 -17 -8 -29 -2 -12
7 -20 6 -24 0 -4 -6 -11 -8 -17 -4 -5 3 -37 8 -71 9 -34 2 -63 8 -65 14 -2 6
-7 9 -12 6 -19 -11 -157 143 -170 190 -5 20 -10 35 -17 53 -8 21 -9 28 -17 72
-3 19 -8 46 -11 60 -5 23 -9 46 -20 122 -12 79 -53 198 -68 198 -6 0 -8 3 -4
6 15 16 -87 133 -159 182 -87 59 -254 87 -356 58z"/>
<path d="M5794 8811 c-154 -49 -228 -186 -166 -306 23 -46 93 -125 110 -125 7
0 12 -4 12 -9 0 -5 19 -19 43 -31 23 -12 45 -27 49 -34 5 -7 8 -5 8 7 0 9 -4
17 -8 17 -14 0 -32 73 -30 119 1 22 5 41 10 41 4 0 8 7 8 15 0 23 56 81 98
101 57 28 107 26 171 -7 69 -36 97 -57 172 -134 66 -66 162 -199 152 -209 -3
-3 -1 -6 5 -6 10 0 23 -25 21 -44 0 -5 3 -12 8 -15 7 -5 35 -58 37 -71 1 -3 4
-9 7 -15 3 -5 11 -30 18 -55 8 -25 16 -52 19 -60 3 -8 6 -19 7 -25 1 -5 4 -19
8 -30 21 -67 25 -241 7 -320 -12 -54 -46 -132 -67 -153 -7 -7 -16 -19 -20 -26
-13 -20 -79 -66 -86 -59 -4 3 -7 1 -7 -5 0 -6 -17 -14 -37 -18 -21 -4 -42 -10
-48 -14 -5 -4 -40 -6 -77 -5 -75 1 -91 -11 -28 -21 22 -4 40 -10 40 -15 0 -5
3 -8 8 -7 4 1 36 -2 72 -7 142 -18 230 4 298 74 61 62 72 77 72 95 0 8 5 18
11 21 6 4 8 13 5 21 -3 7 -1 16 3 19 21 13 31 193 17 290 -4 28 -8 62 -9 78 0
15 -3 27 -7 27 -3 0 -7 12 -8 26 -7 84 -168 464 -213 504 -3 3 -16 21 -30 41
-73 109 -236 268 -276 269 -7 0 -13 3 -13 8 0 9 -97 47 -155 61 -59 14 -153
11 -211 -8z"/>
<path d="M6010 8436 c0 -7 -6 -29 -14 -47 -8 -19 -15 -38 -17 -44 -12 -49
-140 -305 -152 -305 -4 0 -6 -4 -3 -9 3 -5 -3 -20 -14 -34 -11 -14 -20 -28
-20 -31 0 -4 -4 -12 -10 -19 -5 -7 -39 -50 -76 -97 -61 -77 -88 -105 -164
-174 -35 -31 -147 -106 -158 -106 -5 0 -20 -8 -33 -18 -33 -25 -176 -80 -254
-98 -12 -3 -53 -11 -80 -17 -45 -10 -123 -20 -175 -23 -30 -1 -55 -4 -55 -4 0
-1 -22 -3 -50 -5 -27 -2 -90 -6 -140 -10 -49 -4 -115 -8 -145 -10 -30 -2 -55
-4 -55 -5 0 -1 -29 -3 -65 -6 -36 -2 -81 -6 -100 -8 -119 -15 -156 -19 -167
-19 -7 0 -13 -4 -13 -9 0 -5 -11 -6 -25 -4 -14 3 -25 1 -25 -2 0 -4 -11 -9
-25 -10 -14 -1 -39 -9 -55 -17 -17 -9 -30 -13 -30 -10 0 3 -20 -8 -44 -24 -50
-35 -96 -86 -96 -107 0 -8 -4 -14 -9 -14 -9 0 -22 -56 -26 -110 -1 -14 2 -38
7 -55 5 -16 11 -39 13 -50 7 -30 64 -135 85 -155 3 -3 23 -27 45 -55 38 -47
82 -96 221 -241 33 -35 59 -64 57 -64 -2 0 11 -15 28 -32 17 -18 38 -45 47
-60 9 -16 20 -28 24 -28 4 0 8 -6 8 -12 0 -7 9 -24 20 -38 11 -14 20 -33 20
-42 0 -10 4 -18 9 -18 7 0 22 -50 25 -84 1 -5 8 -11 16 -13 9 -3 11 -1 5 4
-14 11 -17 33 -6 33 6 0 9 9 8 20 -1 11 -4 20 -7 20 -3 0 -6 20 -6 45 -1 24
-9 62 -18 85 -9 22 -12 40 -8 40 4 0 2 4 -3 8 -6 4 -17 21 -25 37 -22 45 -79
126 -113 163 -17 17 -28 32 -25 32 4 0 -8 15 -25 33 -32 34 -42 45 -128 147
-123 146 -141 272 -49 348 20 17 102 55 118 55 6 0 12 3 12 7 0 4 17 10 38 13
20 3 46 8 57 10 18 4 90 15 141 21 11 2 26 6 32 10 7 4 12 2 12 -4 0 -6 5 -8
12 -3 7 4 26 8 43 10 16 1 59 4 95 7 65 6 209 17 265 20 17 1 36 5 42 9 6 4
14 3 18 -3 4 -6 11 -7 17 -4 6 4 30 8 54 10 44 3 129 13 174 21 14 3 37 5 53
6 15 1 27 5 27 8 0 4 17 10 38 13 58 11 199 61 282 102 202 98 380 264 464
434 15 30 34 67 42 83 7 15 19 54 26 87 6 32 14 57 17 55 12 -7 21 252 11 338
-4 35 -20 54 -20 23z"/>
<path d="M3245 8427 c-77 -20 -164 -75 -240 -152 -50 -50 -104 -142 -107 -181
-1 -13 -5 -24 -8 -24 -12 0 -16 -107 -7 -165 11 -63 12 -69 20 -82 5 -7 5 -17
2 -23 -3 -5 -3 -10 2 -10 4 0 21 -25 37 -56 16 -30 42 -69 58 -86 15 -16 28
-34 28 -39 0 -5 3 -9 8 -9 4 0 23 -15 42 -33 19 -18 51 -44 70 -57 19 -13 37
-27 40 -30 3 -3 22 -18 43 -33 57 -43 125 -115 153 -163 80 -136 -15 -278
-179 -270 -155 7 -235 197 -133 313 46 52 47 61 6 36 -16 -9 -30 -21 -30 -25
0 -4 -6 -8 -13 -8 -6 0 -26 -16 -42 -36 -17 -20 -36 -43 -43 -50 -7 -7 -12
-16 -12 -19 0 -3 -7 -19 -15 -35 -9 -17 -13 -30 -9 -30 4 0 1 -7 -6 -15 -7 -8
-9 -15 -4 -15 4 0 3 -5 -4 -12 -7 -7 -8 -17 -1 -30 7 -12 6 -18 -1 -18 -7 0
-9 -8 -5 -20 4 -11 8 -34 10 -51 6 -41 27 -99 37 -99 4 0 8 -6 8 -13 0 -18 78
-91 118 -112 87 -43 237 -40 328 8 60 31 143 129 136 160 -1 4 2 7 8 7 9 0 26
67 21 84 -1 5 4 13 11 17 11 7 11 9 0 9 -8 0 -10 5 -6 12 10 16 6 82 -8 133
-31 117 -100 218 -207 305 -23 19 -48 40 -54 45 -7 6 -33 27 -59 48 -71 57
-138 129 -144 154 -4 13 -9 23 -13 23 -7 0 -28 51 -37 92 -10 40 -13 139 -6
134 4 -3 6 11 4 30 -3 21 0 34 7 34 6 0 10 3 9 8 -7 35 79 132 147 167 22 11
42 23 45 26 12 16 160 43 160 30 0 -4 10 -7 22 -8 46 -4 124 -49 178 -103 71
-72 250 -336 250 -369 0 -26 -131 -151 -158 -151 -7 0 -10 -4 -7 -10 3 -5 1
-10 -6 -10 -7 0 -10 -3 -6 -6 3 -3 20 1 39 9 47 21 116 44 132 45 5 0 12 4 15
9 3 5 22 19 42 31 47 28 66 71 48 104 -7 12 -12 29 -11 36 2 6 -1 12 -7 12 -5
0 -14 12 -20 28 -23 60 -129 225 -191 296 -39 46 -110 117 -110 111 0 -3 -10
4 -22 15 -27 25 -103 68 -126 72 -9 2 -20 7 -23 11 -11 15 -152 17 -204 4z"/>
<path d="M5729 7168 c-5 -13 -2 -81 4 -85 4 -2 5 -8 2 -14 -3 -5 -8 -50 -10
-101 -2 -51 -6 -104 -9 -118 -2 -14 -7 -43 -11 -64 -4 -22 -11 -50 -16 -63 -5
-13 -11 -36 -14 -51 -6 -34 -43 -125 -89 -220 -20 -40 -36 -77 -36 -82 0 -6
-4 -10 -8 -10 -5 0 -9 -6 -10 -12 0 -7 -3 -30 -5 -50 -3 -21 -1 -38 4 -38 5 0
6 -7 3 -15 -4 -8 -1 -15 7 -15 7 0 10 -3 6 -6 -6 -7 7 -25 37 -52 10 -9 23
-22 30 -27 6 -6 34 -24 61 -39 28 -16 52 -32 55 -35 3 -3 17 -12 32 -20 27
-14 175 -151 163 -151 -4 0 1 -8 11 -17 24 -25 100 -143 108 -170 4 -13 12
-23 17 -23 5 0 9 -6 9 -13 0 -22 24 -67 36 -67 12 0 11 113 -2 180 -4 19 -8
44 -9 55 -12 83 -88 213 -184 315 -144 152 -173 236 -127 369 9 22 13 41 11
41 -2 0 2 21 9 48 16 64 11 229 -9 302 -2 8 -6 26 -9 40 -2 14 -9 45 -15 70
-7 25 -14 56 -17 70 -3 13 -9 27 -13 30 -5 3 -7 13 -5 23 2 14 -3 24 -7 15z"/>
<path d="M4565 7062 c-3 -3 -13 -7 -21 -8 -9 -1 -23 -6 -32 -10 -9 -4 -19 -8
-22 -8 -23 -6 -90 -42 -90 -49 0 -4 -5 -5 -12 -1 -7 4 -8 3 -4 -5 4 -6 13 -8
19 -4 7 4 17 8 22 9 6 1 19 6 29 10 15 6 17 4 11 -7 -7 -11 -6 -12 6 -2 23 18
109 22 160 7 59 -18 126 -83 164 -160 16 -32 30 -66 32 -74 18 -105 24 -167
26 -287 1 -57 6 -103 11 -103 5 0 4 -6 -2 -12 -5 -8 -6 -22 -1 -33 11 -29 11
-37 -3 -29 -7 5 -8 3 -2 -7 4 -8 9 -30 10 -49 5 -72 13 -140 17 -148 3 -4 8
-29 11 -56 4 -27 9 -53 12 -58 3 -5 8 -21 10 -36 3 -15 9 -29 15 -30 5 -2 7
-8 4 -12 -3 -5 -1 -11 4 -14 5 -4 8 2 6 11 -2 10 -4 18 -5 18 -6 0 -11 121
-16 400 -3 176 -8 358 -11 405 -3 47 -5 95 -5 108 0 12 -3 22 -7 22 -4 0 -7
10 -9 23 -5 66 -88 177 -133 177 -10 0 -20 4 -23 9 -6 10 -162 12 -171 3z"/>
<path d="M4702 6303 c13 -47 -225 -278 -302 -295 -8 -2 -18 -7 -21 -12 -4 -4
-26 -8 -49 -8 -51 1 -87 30 -96 79 -5 27 -9 31 -20 22 -8 -6 -14 -18 -14 -25
0 -8 -4 -14 -8 -14 -9 0 -11 -14 -15 -102 -4 -82 40 -165 109 -204 30 -17 114
-10 160 14 78 40 139 113 200 237 47 97 72 180 80 263 3 42 1 52 -11 52 -8 0
-14 -3 -13 -7z"/>
<path d="M8033 6194 c-21 -25 -46 -55 -56 -67 -52 -63 -149 -167 -202 -218
-116 -110 -145 -137 -145 -133 0 2 -10 -5 -22 -15 -24 -20 -105 -85 -123 -99
-5 -4 -22 -13 -37 -21 -16 -8 -28 -18 -28 -23 0 -4 -5 -8 -11 -8 -6 0 -23 -9
-39 -20 -37 -26 -201 -107 -234 -116 -14 -3 -26 -10 -26 -15 0 -5 -3 -8 -7 -7
-5 1 -35 -6 -68 -17 -33 -10 -64 -19 -70 -20 -108 -23 -135 -28 -160 -32 -70
-11 -394 -5 -412 8 -2 1 -6 2 -10 3 -16 4 -89 19 -101 22 -28 5 -127 38 -132
43 -5 6 -21 11 -45 15 -50 8 -428 229 -455 265 -3 4 -15 14 -27 22 -40 28
-135 112 -219 196 -90 91 -98 83 -31 -27 50 -82 128 -184 178 -232 22 -21 39
-41 39 -44 0 -7 19 -24 140 -122 52 -42 97 -79 100 -82 11 -13 159 -100 168
-100 6 0 12 -3 14 -7 4 -11 128 -73 144 -73 8 0 14 -4 14 -8 0 -9 24 -19 177
-72 61 -21 114 -36 117 -33 3 4 6 1 6 -4 0 -6 8 -10 18 -8 9 1 25 -2 34 -6 10
-5 30 -11 45 -13 15 -3 48 -8 73 -12 25 -4 60 -8 77 -8 18 -1 33 -4 33 -7 0
-8 -5 -8 313 -7 15 0 27 3 27 7 0 4 15 6 33 6 17 -1 37 1 42 4 11 6 13 7 70
16 22 4 47 11 55 15 8 4 20 9 25 10 44 10 145 53 145 62 0 4 3 7 8 6 23 -5
147 78 226 152 51 47 53 49 87 90 35 42 120 170 113 170 -4 0 0 8 8 18 9 9 19
27 22 40 4 12 12 22 18 22 6 0 9 3 5 6 -3 4 0 19 9 35 8 16 11 29 8 29 -4 0 1
9 11 20 10 11 15 20 12 20 -3 0 3 25 13 55 10 30 16 55 13 55 -3 0 -1 6 5 13
8 10 24 81 23 102 0 2 4 19 10 37 5 18 11 57 15 87 3 31 8 59 10 63 14 23 -9
2 -43 -38z"/>
<path d="M4164 5726 c-22 -22 -52 -57 -67 -77 -35 -46 -87 -151 -81 -161 3 -4
0 -8 -7 -8 -7 0 -10 -3 -6 -6 3 -3 1 -18 -4 -32 -5 -14 -12 -48 -14 -76 -2
-28 -5 -51 -5 -51 -1 0 -2 -19 -3 -42 -2 -24 1 -43 4 -43 4 0 7 -10 7 -22 0
-36 10 -86 22 -108 6 -11 9 -20 6 -20 -11 0 64 -130 91 -158 17 -18 16 -34 -2
-57 -8 -11 -35 -47 -60 -80 -25 -33 -53 -70 -63 -83 -9 -13 -29 -35 -44 -49
-16 -15 -28 -30 -28 -34 0 -4 -21 -29 -47 -57 -27 -27 -69 -71 -94 -98 -51
-55 -158 -152 -246 -224 -78 -65 -288 -204 -325 -216 -10 -4 -18 -11 -18 -16
0 -5 -4 -7 -9 -3 -5 3 -12 1 -15 -4 -9 -13 -119 -65 -135 -62 -7 1 -10 -2 -6
-8 3 -6 -1 -11 -10 -11 -8 0 -23 -4 -33 -10 -25 -14 -94 -42 -113 -46 -8 -2
-29 -10 -45 -19 -16 -8 -36 -15 -44 -15 -9 0 -21 -5 -28 -12 -7 -7 -12 -9 -12
-5 0 4 -32 -5 -70 -19 -39 -14 -75 -22 -80 -19 -6 3 -10 1 -10 -4 0 -6 -13
-11 -28 -11 -16 0 -32 -3 -36 -7 -3 -4 -14 -8 -24 -9 -9 -2 -35 -7 -58 -13
-48 -12 -111 -23 -136 -22 -10 0 -18 -4 -18 -8 0 -4 -6 -8 -12 -8 -22 -1 -132
-13 -163 -19 -16 -3 -43 -7 -60 -9 -16 -2 -30 -4 -30 -5 0 -1 -29 -3 -65 -6
-36 -2 -78 -6 -95 -8 -112 -18 -671 -26 -952 -13 l-133 5 -1 -31 c-1 -18 -2
-42 -2 -54 -1 -13 -3 -23 -6 -23 -6 0 -7 -14 -13 -207 -3 -83 -1 -123 6 -123
8 0 8 -3 0 -8 -13 -8 -15 -42 -2 -42 5 0 4 -9 -2 -20 -6 -11 -7 -20 -3 -20 5
0 8 -17 7 -37 0 -21 1 -42 4 -47 3 -5 6 -21 7 -35 5 -50 17 -116 23 -126 4 -5
7 -19 8 -30 5 -71 94 -269 171 -378 74 -107 101 -136 222 -247 9 -8 44 -35 76
-60 33 -25 63 -49 67 -55 4 -5 8 -6 8 -1 0 5 8 2 18 -6 37 -33 305 -180 332
-183 3 0 14 -6 26 -12 11 -6 65 -29 120 -51 54 -21 108 -43 119 -47 11 -4 26
-7 33 -6 6 1 12 -3 12 -9 0 -6 6 -10 13 -9 6 1 26 -4 42 -11 17 -7 36 -12 43
-11 6 1 12 -3 12 -9 0 -5 3 -9 8 -8 9 3 90 -20 114 -33 24 -12 41 -11 33 2 -4
6 -9 8 -12 5 -4 -3 -14 4 -24 16 -11 11 -19 18 -19 15 0 -10 -155 106 -254
192 -59 50 -258 251 -250 251 3 0 -8 16 -25 35 -42 48 -153 215 -144 215 5 0
0 7 -10 14 -10 8 -18 17 -18 20 0 3 -14 39 -33 79 -37 81 -76 194 -79 226 -1
12 -5 21 -10 21 -4 0 -7 6 -6 13 2 6 -1 32 -6 57 -4 25 -10 56 -12 70 -6 38
-11 233 -6 247 4 10 46 22 133 37 14 3 25 5 25 7 0 1 9 3 20 5 21 3 79 14 105
19 8 2 15 4 15 5 0 1 11 4 25 6 14 3 43 9 65 15 22 6 51 13 65 16 14 2 40 8
59 13 19 5 38 7 42 5 4 -3 9 -1 11 4 1 5 17 12 33 15 17 2 39 7 50 10 67 18
112 28 123 29 6 0 12 4 12 9 0 5 5 6 10 3 6 -4 17 -1 25 5 8 7 15 10 15 6 0
-3 12 -1 28 5 26 10 37 13 81 23 53 12 137 42 143 51 4 5 8 7 8 3 0 -4 24 1
54 12 30 10 57 16 60 13 3 -4 6 -1 6 6 0 7 4 10 9 6 5 -3 12 -1 15 4 3 5 22
12 41 15 19 4 35 11 35 16 0 5 9 7 20 5 11 -2 20 0 20 4 0 8 79 36 93 33 4 -1
7 2 7 8 0 5 5 10 11 10 5 0 31 9 57 21 132 59 161 72 202 95 25 14 57 30 73
35 15 6 27 15 27 21 0 5 4 7 9 3 5 -3 16 0 23 7 17 16 61 42 106 63 17 8 32
20 32 25 0 6 6 10 13 10 7 0 23 9 35 20 12 11 24 20 27 20 10 0 176 128 245
188 141 125 340 343 406 447 10 17 21 32 24 35 15 14 60 80 55 80 -5 0 3 12
33 45 6 7 12 18 12 23 0 5 8 20 18 33 10 13 32 49 48 79 16 30 32 57 35 60 4
3 9 14 13 25 4 15 -7 34 -44 75 -28 30 -56 67 -62 82 -7 15 -16 24 -20 22 -4
-3 -8 1 -8 9 0 8 -7 28 -16 46 -28 55 -42 127 -42 210 0 45 3 81 6 81 4 0 8
12 8 28 2 39 9 64 49 176 19 54 34 100 33 101 -2 1 -21 -16 -44 -39z"/>
<path d="M4965 5761 c5 -8 10 -24 11 -35 7 -57 12 -83 18 -103 10 -33 18 -66
18 -83 0 -8 2 -22 6 -30 3 -8 7 -22 8 -30 2 -8 10 -40 19 -70 9 -30 18 -64 20
-74 3 -11 12 -42 22 -70 10 -28 18 -55 19 -61 1 -5 7 -26 15 -45 7 -19 12 -38
11 -42 -1 -5 3 -8 8 -8 6 0 10 -6 8 -12 -1 -7 8 -35 20 -62 12 -27 22 -54 22
-60 0 -6 7 -21 15 -32 8 -12 11 -24 8 -28 -3 -3 0 -6 7 -6 7 0 11 -3 8 -6 -4
-3 9 -37 28 -74 19 -38 34 -74 34 -78 0 -5 7 -15 15 -22 8 -6 14 -15 13 -18
-2 -8 51 -114 61 -122 3 -3 13 -18 21 -35 7 -16 25 -45 38 -62 12 -18 21 -33
17 -33 -3 0 15 -29 40 -64 25 -36 45 -67 45 -70 0 -3 7 -14 15 -23 8 -10 43
-56 77 -103 72 -98 79 -106 133 -167 22 -25 47 -55 55 -67 18 -26 287 -296
295 -296 3 0 16 -10 29 -22 13 -13 37 -35 52 -49 41 -36 223 -172 262 -194 17
-11 32 -24 32 -29 0 -5 3 -7 6 -3 4 3 12 1 20 -6 31 -28 42 -35 62 -41 13 -4
19 -12 16 -18 -5 -7 -2 -8 6 -3 7 4 15 3 19 -2 8 -12 111 -69 231 -127 52 -26
103 -51 112 -56 10 -6 25 -10 33 -10 8 0 15 -5 15 -12 0 -6 3 -8 6 -5 4 3 15
2 26 -4 11 -6 29 -12 40 -14 12 -3 25 -10 28 -16 4 -6 9 -10 11 -9 2 1 22 -3
44 -9 22 -6 44 -10 49 -10 5 0 12 -3 15 -8 5 -7 64 -26 121 -38 8 -2 15 -4 15
-5 0 -1 7 -3 15 -5 8 -1 49 -10 90 -20 41 -9 86 -18 100 -20 14 -2 25 -4 25
-5 0 -1 14 -3 30 -4 17 -2 55 -7 85 -11 30 -4 73 -7 95 -7 22 0 34 -2 27 -5
-6 -2 -10 -8 -7 -13 3 -4 -9 -13 -25 -20 -17 -7 -30 -16 -30 -21 0 -5 -6 -9
-14 -9 -8 0 -16 -3 -18 -7 -3 -9 -64 -53 -72 -53 -8 0 -261 -182 -268 -194 -4
-6 -8 -8 -8 -4 0 8 -75 -44 -112 -77 -10 -8 -18 -12 -18 -9 0 3 -7 -1 -15 -8
-31 -28 -44 -38 -52 -38 -4 -1 -24 -14 -43 -30 -19 -17 -40 -30 -46 -30 -7 0
-14 -4 -16 -8 -4 -11 -186 -121 -275 -167 -37 -19 -73 -40 -80 -45 -7 -6 -14
-10 -17 -10 -3 0 -17 -5 -33 -11 -15 -6 -28 -9 -28 -7 0 1 -11 -5 -25 -15 -13
-9 -32 -17 -42 -17 -10 0 -18 -4 -18 -9 0 -5 -16 -12 -35 -15 -19 -4 -35 -10
-35 -14 0 -4 -12 -9 -26 -10 -15 -1 -33 -7 -40 -13 -8 -6 -14 -9 -14 -6 0 4
-19 -1 -42 -10 -24 -8 -52 -17 -63 -18 -11 -2 -20 -4 -20 -5 0 -1 -7 -3 -15
-5 -8 -2 -28 -6 -45 -10 -16 -4 -37 -8 -45 -9 -13 -3 -85 -18 -100 -21 -3 -1
-32 -5 -65 -9 -69 -9 -100 -14 -100 -16 0 -5 -137 -10 -270 -10 -212 2 -225 2
-225 9 0 3 -19 6 -43 7 -43 1 -108 10 -162 21 -16 4 -37 7 -45 9 -18 2 -91 15
-105 19 -5 1 -28 5 -50 9 -22 4 -51 11 -65 16 -19 6 -151 39 -225 55 -29 6
-72 17 -85 22 -8 3 -24 7 -36 8 -11 2 -40 9 -65 15 -51 14 -74 19 -109 25 -14
2 -43 7 -65 11 -22 4 -48 7 -57 8 -10 0 -18 3 -18 6 0 3 -29 5 -65 4 -36 0
-65 3 -65 6 0 4 -7 7 -15 7 -8 0 -12 -3 -10 -7 2 -3 -22 -6 -53 -5 -31 1 -61
-1 -67 -4 -5 -3 -18 -7 -27 -8 -36 -6 -53 -10 -70 -17 -9 -4 -22 -8 -30 -10
-28 -4 -132 -70 -174 -111 -36 -35 -63 -76 -68 -105 -1 -3 -4 -10 -8 -16 -4
-6 -5 -39 -3 -75 4 -66 37 -152 69 -178 9 -7 16 -17 16 -22 0 -8 79 -89 116
-119 39 -32 113 -80 122 -80 6 0 12 -3 14 -7 5 -13 164 -83 198 -88 8 -1 34
-7 56 -14 53 -14 154 -21 154 -10 0 5 -6 9 -12 10 -118 7 -319 132 -393 244
-29 44 -45 75 -38 75 3 0 1 6 -4 13 -15 19 -15 74 1 110 19 46 56 81 110 103
25 11 46 22 46 26 0 3 9 4 20 1 11 -3 20 -1 20 4 0 11 20 13 153 14 65 1 113
-3 121 -10 7 -6 15 -9 17 -6 3 2 41 -5 84 -16 44 -11 89 -23 100 -25 11 -3 25
-6 30 -8 6 -2 24 -6 40 -10 17 -4 39 -11 50 -16 23 -9 122 -33 145 -35 9 0 21
-5 28 -9 7 -4 19 -5 27 -2 7 2 15 1 17 -4 2 -4 28 -11 58 -16 82 -10 84 -11
100 -17 14 -5 44 -9 170 -24 30 -4 85 -7 122 -7 38 -1 68 -4 68 -7 0 -3 93 -4
208 -3 114 1 207 3 207 4 0 0 27 3 61 5 33 2 87 7 120 11 32 3 69 7 82 7 12 1
22 4 22 8 0 4 12 7 28 8 29 1 87 8 87 11 0 1 7 3 15 5 17 4 69 17 160 41 36
10 68 22 72 28 4 6 8 8 8 4 0 -6 57 11 130 38 8 3 15 5 15 4 0 -2 142 58 192
81 24 10 46 19 49 19 12 0 79 34 86 44 4 6 8 7 8 2 0 -5 7 -3 15 4 8 7 15 9
15 4 0 -5 4 -4 8 1 4 6 68 40 142 77 184 92 364 189 368 199 2 5 8 9 14 9 5 0
40 17 76 39 77 44 157 89 255 141 38 21 79 45 90 56 12 10 23 17 25 16 1 -1
52 23 112 53 61 30 110 52 110 48 0 -5 4 -3 8 3 15 23 137 62 217 69 22 2 40
4 40 5 0 1 61 3 135 4 88 2 138 -1 142 -8 5 -8 8 -7 8 1 0 11 10 9 93 -18 17
-6 37 -12 42 -13 47 -13 93 -74 89 -118 -4 -37 -40 -118 -54 -118 -6 0 -9 -4
-6 -9 9 -14 -136 -144 -239 -216 -51 -36 -96 -65 -99 -65 -4 0 -30 -15 -59
-33 -29 -18 -70 -41 -92 -52 -22 -11 -43 -24 -47 -30 -4 -5 -8 -7 -8 -4 0 4
-43 -15 -96 -42 -53 -27 -100 -46 -105 -43 -5 3 -9 1 -9 -3 0 -8 -49 -33 -75
-39 -35 -8 -54 -17 -49 -25 3 -5 10 -6 17 -2 6 3 25 7 42 9 32 2 102 12 140
21 11 2 34 6 50 9 17 3 71 15 120 26 50 11 109 24 133 29 23 4 51 13 62 19 11
6 20 8 20 6 0 -9 260 83 337 119 40 19 73 31 73 29 0 -3 7 2 16 10 8 9 21 16
28 16 7 0 21 8 32 18 10 9 33 24 49 32 86 42 228 171 282 256 44 68 71 160 67
233 -3 52 -28 134 -49 158 -5 7 -23 30 -40 51 -37 47 -92 88 -170 125 -86 41
-128 54 -240 73 -11 2 -137 6 -280 8 -284 5 -489 15 -610 31 -22 3 -60 7 -85
10 -25 2 -61 6 -80 9 -19 3 -51 7 -70 10 -19 3 -60 9 -90 15 -30 6 -68 13 -85
15 -70 12 -317 72 -415 101 -8 3 -35 10 -60 17 -25 7 -48 16 -51 21 -3 4 -10
7 -15 5 -9 -2 -98 29 -169 60 -21 9 -42 17 -45 18 -13 2 -157 65 -203 89 -16
8 -35 15 -43 15 -9 0 -13 4 -10 8 3 5 -12 14 -32 22 -20 7 -65 30 -99 51 -35
22 -66 39 -69 39 -8 0 -256 166 -283 189 -13 12 -27 21 -30 21 -3 0 -23 15
-43 33 -20 17 -49 42 -65 54 -15 12 -53 44 -83 72 -30 28 -58 51 -63 51 -4 0
-5 5 -2 10 3 6 1 10 -4 10 -9 0 -52 43 -182 180 -20 22 -85 99 -185 223 -8 9
-14 19 -14 22 0 4 -20 31 -45 59 -11 12 -47 65 -55 81 -3 6 -30 48 -60 94 -30
47 -54 89 -53 93 2 4 0 8 -5 8 -4 0 -16 17 -27 38 -10 20 -28 49 -38 65 -10
15 -15 27 -12 27 3 0 -2 12 -13 28 -30 42 -71 130 -65 136 4 3 2 6 -4 6 -6 0
-14 10 -18 23 -4 12 -8 24 -10 27 -1 3 -14 32 -30 65 -42 90 -85 198 -85 213
0 6 -4 12 -8 12 -5 0 -9 6 -9 13 -1 6 -15 50 -32 97 -18 47 -33 91 -35 98 -1
7 -8 18 -16 25 -10 10 -11 9 -5 -2z"/>
<path d="M4777 5613 c-16 -32 -13 -563 4 -563 3 0 6 -17 6 -37 0 -21 3 -54 6
-73 12 -67 20 -115 23 -135 1 -11 3 -20 4 -20 1 0 3 -11 5 -25 4 -29 11 -63
20 -91 4 -10 8 -29 9 -42 2 -12 6 -29 9 -37 9 -25 42 -154 42 -165 0 -5 2 -12
5 -15 3 -3 17 -40 30 -83 13 -43 27 -80 32 -83 4 -3 5 -11 1 -19 -3 -8 -1 -15
4 -15 5 0 15 -21 22 -47 8 -27 18 -55 23 -63 18 -33 68 -151 68 -160 0 -6 4
-10 8 -10 6 0 15 -18 34 -70 1 -3 23 -42 50 -88 26 -46 48 -88 48 -93 0 -5 5
-9 10 -9 6 0 10 -7 10 -15 0 -8 5 -15 10 -15 6 0 10 -6 10 -13 0 -7 9 -23 20
-35 11 -12 20 -24 20 -28 0 -6 93 -135 115 -160 5 -7 26 -31 45 -55 54 -68
227 -239 241 -239 7 0 10 -3 6 -6 -7 -7 78 -74 93 -74 6 0 10 -4 10 -9 0 -5
17 -20 38 -32 20 -13 39 -25 42 -28 5 -6 14 -12 100 -63 30 -18 57 -33 60 -33
3 0 39 -17 81 -37 41 -20 107 -46 145 -58 38 -12 76 -24 84 -27 8 -3 22 -7 30
-9 32 -6 86 -17 100 -21 8 -2 29 -5 45 -8 28 -4 29 -3 11 10 -11 8 -23 15 -27
15 -20 0 -326 185 -384 232 -5 5 -35 27 -65 50 -30 24 -60 47 -67 53 -80 68
-116 101 -177 160 -63 62 -146 154 -202 224 -10 13 -24 29 -30 35 -6 7 -32 42
-58 80 -25 37 -46 64 -46 59 0 -4 -8 6 -17 23 -10 17 -48 80 -84 140 -37 61
-98 173 -135 250 -38 76 -72 140 -76 142 -4 2 -4 10 -1 18 3 8 0 14 -7 14 -7
0 -10 6 -7 13 3 7 -1 21 -9 32 -8 10 -14 27 -14 37 0 10 -4 18 -10 18 -5 0
-10 8 -10 18 0 10 -7 27 -15 38 -8 12 -11 24 -7 28 3 4 2 10 -3 14 -6 4 -21
41 -34 82 -14 41 -29 81 -34 88 -5 6 -6 12 -2 12 4 0 3 6 -3 13 -6 6 -11 17
-11 22 -3 21 -22 91 -34 120 -6 17 -12 35 -14 40 -4 21 -12 51 -22 82 -5 17
-7 34 -3 37 3 3 0 6 -6 6 -6 0 -10 8 -10 18 1 19 -20 106 -33 137 -4 11 -11
36 -14 55 -6 37 -13 65 -15 65 -1 0 -3 11 -5 25 -2 14 -11 54 -20 90 -9 36
-17 80 -17 98 -1 17 -6 32 -11 32 -6 0 -8 2 -5 5 3 3 -3 44 -12 90 -9 46 -15
87 -12 90 3 3 3 5 -1 5 -3 0 -8 -3 -10 -7z"/>
<path d="M6286 5102 c-2 -4 22 -54 55 -110 32 -57 59 -107 59 -112 0 -6 5 -10
12 -10 6 0 9 -2 6 -6 -3 -3 25 -68 63 -144 38 -77 69 -142 69 -145 0 -2 14
-33 30 -67 17 -34 30 -67 30 -75 0 -7 5 -13 11 -13 6 0 9 -7 5 -15 -3 -8 -2
-15 3 -15 5 0 12 -10 16 -22 9 -29 8 -26 29 -73 10 -22 19 -44 20 -50 1 -5 5
-15 9 -22 10 -15 158 -384 162 -403 2 -8 11 -32 19 -52 9 -21 17 -41 17 -45 1
-5 5 -18 10 -31 5 -13 12 -35 15 -50 4 -15 10 -29 13 -32 3 -3 15 -22 25 -43
12 -22 26 -37 35 -35 15 3 35 58 21 58 -5 0 -8 8 -8 18 1 18 -43 188 -60 232
-5 14 -7 31 -5 38 3 6 1 12 -4 12 -6 0 -10 6 -10 13 0 6 -7 36 -16 65 -9 28
-13 52 -9 52 4 0 2 4 -3 8 -11 7 -76 206 -75 230 0 6 -4 12 -10 12 -5 0 -10 7
-10 16 0 14 -69 199 -106 283 -44 100 -136 274 -176 336 -55 84 -141 173 -174
181 -13 3 -24 9 -24 13 0 9 -38 12 -44 3z"/>
<path d="M4081 3760 c-17 -28 -31 -54 -31 -58 0 -4 -7 -17 -15 -27 -9 -11 -47
-69 -86 -130 -39 -60 -75 -111 -80 -113 -5 -2 -9 -9 -9 -15 0 -7 -12 -25 -28
-42 -15 -16 -40 -48 -57 -70 -33 -45 -84 -102 -162 -183 -29 -29 -53 -59 -53
-65 0 -5 -2 -8 -5 -5 -3 3 -27 -16 -54 -41 -47 -45 -77 -70 -165 -139 -22 -17
-46 -36 -52 -41 -7 -6 -15 -7 -18 -4 -3 4 -6 2 -6 -4 0 -11 -121 -89 -132 -85
-5 1 -8 -2 -8 -7 0 -9 -239 -131 -264 -135 -8 -1 -22 -8 -32 -16 -10 -8 -15
-10 -11 -3 4 6 -10 3 -30 -7 -21 -10 -41 -16 -45 -13 -5 2 -8 -1 -8 -7 0 -7
-6 -10 -14 -7 -8 3 -17 3 -21 -1 -4 -4 -11 -8 -16 -8 -5 -1 -10 -2 -11 -4 -2
-1 -10 -3 -18 -5 -84 -21 -141 -35 -161 -39 -13 -2 -41 -7 -61 -11 -20 -4 -54
-8 -75 -10 -21 -2 -38 -4 -38 -6 0 -1 -24 -3 -53 -4 -28 -1 -55 -4 -58 -8 -3
-3 -12 -3 -20 0 -9 3 -14 -3 -15 -18 -1 -13 -3 -37 -5 -54 -10 -89 0 -314 16
-325 4 -3 6 -15 5 -27 -1 -13 3 -23 8 -23 6 0 8 -3 4 -6 -10 -10 52 -164 65
-164 5 0 8 -6 8 -12 1 -24 100 -136 157 -176 64 -45 185 -97 253 -108 8 -2 31
-6 50 -10 19 -4 54 -7 77 -7 23 -1 40 -4 37 -8 -2 -4 9 -4 26 1 21 6 30 5 30
-3 0 -8 3 -8 8 -2 4 6 21 11 37 11 48 0 190 17 198 24 2 2 19 6 62 14 16 3 54
13 85 22 69 20 73 21 83 22 4 0 20 8 34 17 14 9 22 12 19 6 -4 -6 6 -4 21 4
15 8 49 23 76 34 26 11 47 24 47 28 0 4 -98 9 -218 10 -286 2 -369 12 -491 59
-170 66 -260 186 -274 362 -4 47 -1 54 19 51 4 0 11 5 15 13 7 10 9 10 9 0 0
-8 5 -10 13 -5 6 4 17 8 22 10 39 8 57 13 88 21 20 6 38 7 41 4 3 -3 6 1 6 8
0 7 3 11 6 7 8 -8 120 34 197 73 32 17 65 30 73 30 8 0 14 4 14 9 0 5 13 13
28 19 16 5 35 16 43 23 8 8 28 21 44 29 17 8 35 19 40 23 6 4 42 31 82 61 88
64 165 131 247 212 69 70 159 171 165 188 2 6 9 16 15 22 25 26 56 65 56 70 0
2 22 37 48 77 27 40 55 87 63 105 8 17 17 32 21 32 5 0 7 3 6 8 -1 4 6 23 17
42 10 19 20 40 21 45 1 6 11 30 22 55 11 25 26 63 32 85 7 22 17 46 23 53 5 6
7 12 4 12 -3 0 0 21 8 48 13 43 17 63 30 140 7 44 14 122 10 122 -2 0 -17 -23
-34 -50z"/>
<path d="M4408 1313 c7 -3 16 -2 19 1 4 3 -2 6 -13 5 -11 0 -14 -3 -6 -6z"/>
</g>
</svg>
